<svg aria-hidden="true" style="position: absolute; width: 0; height: 0; overflow: hidden;" version="1.1" xmlns="http://www.w3.org/2000/svg" xmlns:xlink="http://www.w3.org/1999/xlink">
<defs>
<symbol id="icon-computer" viewBox="0 0 43 32">
<path fill="#ca4941" style="fill: var(--color1, #ca4941)" opacity="0.7" d="M35.407 27.398l0.27-0.253c0.055-0.052 0.136-0.063 0.195-0.020 0.066 0.036 0.125 0.085 0.191 0.114 0.066 0.036 0.097 0.111 0.068 0.183l-0.106 0.352c-0.023 0.080 0.021 0.175 0.101 0.198l0.651 0.196c0.080 0.023 0.175-0.021 0.198-0.101l0.106-0.352c0.023-0.073 0.084-0.118 0.158-0.116l0.228 0.008c0.074 0.002 0.133 0.051 0.15 0.126l0.082 0.358c0.017 0.081 0.103 0.138 0.191 0.114l0.663-0.152c0.081-0.017 0.138-0.103 0.114-0.191l-0.082-0.358c-0.018-0.074 0.012-0.147 0.080-0.179s0.13-0.069 0.198-0.101 0.148-0.022 0.194 0.033l0.253 0.27c0.065 0.069 0.159 0.072 0.228 0.008l0.492-0.46c0.069-0.065 0.072-0.159 0.008-0.228l-0.253-0.27c-0.052-0.055-0.063-0.136-0.020-0.195 0.036-0.066 0.085-0.125 0.114-0.191 0.036-0.066 0.111-0.097 0.184-0.068l0.352 0.106c0.080 0.023 0.175-0.021 0.198-0.101l0.196-0.651c0.023-0.080-0.021-0.175-0.101-0.198l-0.352-0.106c-0.073-0.023-0.118-0.084-0.116-0.158l0.008-0.228c0.002-0.074 0.051-0.133 0.126-0.15l0.358-0.082c0.081-0.017 0.138-0.103 0.114-0.191l-0.152-0.663c-0.017-0.081-0.103-0.138-0.191-0.114l-0.358 0.082c-0.074 0.018-0.147-0.012-0.179-0.080s-0.069-0.13-0.101-0.198-0.022-0.148 0.033-0.194l0.27-0.253c0.069-0.065 0.072-0.159 0.008-0.228l-0.46-0.492c-0.065-0.069-0.159-0.072-0.228-0.008l-0.27 0.253c-0.055 0.052-0.136 0.063-0.195 0.020-0.066-0.036-0.125-0.085-0.191-0.114-0.066-0.036-0.097-0.111-0.068-0.183l0.106-0.352c0.023-0.080-0.021-0.175-0.101-0.198l-0.651-0.196c-0.080-0.023-0.175 0.021-0.198 0.101l-0.106 0.352c-0.023 0.073-0.084 0.118-0.158 0.116l-0.228-0.008c-0.074-0.002-0.133-0.051-0.15-0.126l-0.082-0.358c-0.017-0.081-0.103-0.138-0.191-0.114l-0.663 0.152c-0.081 0.017-0.138 0.103-0.114 0.191l0.082 0.358c0.018 0.074-0.012 0.147-0.080 0.179s-0.13 0.069-0.198 0.101-0.148 0.022-0.194-0.033l-0.253-0.27c-0.065-0.069-0.159-0.072-0.228-0.008l-0.492 0.46c-0.069 0.065-0.072 0.159-0.008 0.228l0.253 0.27c0.052 0.055 0.063 0.136 0.020 0.195-0.036 0.066-0.085 0.125-0.114 0.191-0.036 0.066-0.111 0.097-0.184 0.068l-0.352-0.106c-0.080-0.030-0.175 0.021-0.198 0.101l-0.216 0.63c-0.023 0.080 0.021 0.175 0.101 0.198l0.352 0.106c0.073 0.023 0.118 0.084 0.116 0.158l-0.008 0.228c-0.002 0.074-0.051 0.133-0.126 0.15l-0.358 0.082c-0.081 0.017-0.138 0.103-0.114 0.191l0.152 0.663c0.017 0.081 0.103 0.138 0.191 0.114l0.358-0.082c0.074-0.018 0.147 0.012 0.179 0.080s0.069 0.13 0.101 0.198 0.022 0.148-0.033 0.194l-0.27 0.253c-0.069 0.065-0.072 0.159-0.008 0.228l0.46 0.492c0.078 0.083 0.178 0.087 0.247 0.028v0zM36.028 23.291c0.838-0.784 2.153-0.74 2.937 0.098s0.74 2.153-0.098 2.937c-0.838 0.784-2.153 0.74-2.937-0.098-0.777-0.838-0.733-2.152 0.098-2.937z"></path>
<path fill="#ca4941" style="fill: var(--color1, #ca4941)" opacity="0.7" d="M37.137 13.335l0.173-0.162c0.035-0.032 0.089-0.037 0.121-0.009 0.039 0.028 0.079 0.050 0.118 0.078 0.040 0.021 0.058 0.069 0.043 0.116l-0.068 0.219c-0.015 0.053 0.017 0.108 0.070 0.123l0.405 0.121c0.053 0.015 0.108-0.017 0.123-0.070l0.068-0.226c0.015-0.046 0.056-0.072 0.103-0.070l0.141 0.005c0.047 0.002 0.086 0.030 0.098 0.077l0.053 0.23c0.012 0.054 0.064 0.089 0.118 0.078l0.413-0.094c0.054-0.012 0.089-0.064 0.078-0.118l-0.053-0.223c-0.012-0.047 0.010-0.094 0.051-0.112s0.082-0.044 0.123-0.070c0.041-0.025 0.095-0.017 0.12 0.017l0.162 0.173c0.039 0.042 0.099 0.044 0.141 0.005l0.312-0.292c0.042-0.039 0.044-0.099 0.005-0.141l-0.162-0.173c-0.032-0.035-0.037-0.088-0.009-0.121 0.028-0.039 0.050-0.079 0.078-0.118 0.021-0.040 0.069-0.058 0.116-0.043l0.219 0.068c0.053 0.015 0.108-0.017 0.123-0.070l0.121-0.405c0.015-0.053-0.017-0.108-0.070-0.123l-0.226-0.068c-0.047-0.015-0.072-0.056-0.070-0.103l0.005-0.141c0.002-0.047 0.030-0.086 0.077-0.098l0.23-0.053c0.054-0.012 0.089-0.064 0.078-0.118l-0.094-0.413c-0.012-0.054-0.064-0.089-0.118-0.078l-0.223 0.053c-0.047 0.012-0.094-0.010-0.112-0.051s-0.044-0.082-0.070-0.123c-0.025-0.041-0.017-0.095 0.017-0.12l0.173-0.162c0.042-0.039 0.044-0.099 0.005-0.141l-0.292-0.312c-0.039-0.042-0.099-0.044-0.141-0.005l-0.173 0.162c-0.035 0.032-0.089 0.037-0.121 0.009-0.039-0.028-0.079-0.050-0.118-0.078-0.040-0.021-0.058-0.069-0.043-0.116l0.068-0.219c0.015-0.053-0.017-0.108-0.070-0.123l-0.405-0.121c-0.053-0.015-0.108 0.017-0.123 0.070l-0.068 0.226c-0.015 0.046-0.056 0.072-0.103 0.070l-0.141-0.005c-0.047-0.002-0.086-0.030-0.098-0.077l-0.053-0.23c-0.012-0.054-0.064-0.089-0.118-0.078l-0.413 0.094c-0.054 0.012-0.089 0.064-0.078 0.118l0.053 0.223c0.012 0.047-0.010 0.094-0.051 0.112s-0.082 0.044-0.123 0.070c-0.041 0.025-0.095 0.017-0.12-0.017l-0.162-0.173c-0.039-0.042-0.099-0.044-0.141-0.005l-0.312 0.292c-0.042 0.039-0.044 0.099-0.005 0.141l0.162 0.173c0.032 0.035 0.037 0.088 0.009 0.121-0.028 0.039-0.050 0.079-0.078 0.118-0.021 0.040-0.069 0.058-0.116 0.043l-0.219-0.068c-0.053-0.015-0.108 0.017-0.123 0.070l-0.121 0.405c-0.015 0.053 0.017 0.108 0.070 0.123l0.226 0.068c0.047 0.015 0.072 0.056 0.070 0.103l-0.005 0.141c-0.002 0.047-0.030 0.086-0.077 0.098l-0.23 0.053c-0.054 0.012-0.089 0.064-0.078 0.118l0.094 0.413c0.012 0.054 0.064 0.089 0.118 0.078l0.223-0.053c0.047-0.012 0.094 0.010 0.112 0.051s0.044 0.082 0.070 0.123c0.025 0.041 0.017 0.095-0.017 0.12l-0.173 0.162c-0.042 0.039-0.044 0.099-0.005 0.141l0.292 0.312c0.032 0.041 0.099 0.044 0.141 0.005zM37.533 10.744c0.527-0.492 1.358-0.465 1.851 0.062s0.465 1.358-0.062 1.851-1.358 0.465-1.851-0.062-0.465-1.358 0.062-1.851z"></path>
<path fill="#33384c" style="fill: var(--color2, #33384c)" d="M37.454 25.097h-31.705c-0.221 0-0.403-0.181-0.403-0.403v-20.716c0-0.221 0.181-0.403 0.403-0.403h31.705c0.221 0 0.403 0.181 0.403 0.403v20.709c0 0.228-0.181 0.409-0.403 0.409z"></path>
<path fill="#777a88" style="fill: var(--color3, #777a88)" d="M6.018 23.748v-19.294c0-0.114 0.087-0.201 0.201-0.201h30.759c0.114 0 0.201 0.087 0.201 0.201v19.294c0 0.114-0.087 0.201-0.201 0.201h-30.759c-0.107 0-0.201-0.094-0.201-0.201z"></path>
<path fill="#494e60" style="fill: var(--color4, #494e60)" d="M17.657 25.097h7.889v2.677h-7.889v-2.677z"></path>
<path fill="#33384c" style="fill: var(--color2, #33384c)" d="M26.848 29.109h-10.492c-0.369 0-0.671-0.302-0.671-0.671s0.302-0.671 0.671-0.671h10.486c0.369 0 0.671 0.302 0.671 0.671s-0.295 0.671-0.664 0.671z"></path>
<path fill="#33384c" style="fill: var(--color2, #33384c)" d="M21.904 9.244v7.728c0 0.188-0.148 0.335-0.335 0.335h-13.665c-0.188 0-0.335-0.148-0.335-0.335v-7.728h14.336z"></path>
<path fill="#ca4941" style="fill: var(--color1, #ca4941)" opacity="0.7" d="M21.904 7.829v1.415h-14.336v-1.415c0-0.188 0.148-0.335 0.335-0.335h13.665c0.188 0 0.335 0.148 0.335 0.335z"></path>
<path fill="#ca4941" style="fill: var(--color1, #ca4941)" opacity="0.7" d="M8.425 15.904l-0.469-0.016c-0.094-0.003-0.172-0.066-0.189-0.161s-0.041-0.183-0.065-0.277c-0.024-0.088 0.019-0.181 0.101-0.225l0.41-0.221c0.096-0.050 0.133-0.177 0.083-0.272l-0.404-0.752c-0.051-0.096-0.177-0.133-0.272-0.083l-0.41 0.221c-0.082 0.044-0.182 0.027-0.247-0.042l-0.194-0.208c-0.065-0.063-0.075-0.17-0.025-0.249l0.248-0.394c0.057-0.092 0.028-0.221-0.065-0.277l-0.723-0.454c-0.092-0.057-0.221-0.028-0.277 0.065l-0.248 0.394c-0.050 0.079-0.145 0.116-0.231 0.086s-0.179-0.060-0.272-0.083-0.151-0.106-0.148-0.2l0.016-0.463c0.004-0.114-0.080-0.204-0.194-0.208l-0.852-0.029c-0.114-0.004-0.204 0.080-0.208 0.194l-0.015 0.463c-0.003 0.094-0.066 0.172-0.161 0.189s-0.183 0.041-0.277 0.065c-0.088 0.024-0.181-0.019-0.225-0.101l-0.221-0.41c-0.050-0.096-0.177-0.133-0.272-0.083l-0.752 0.404c-0.096 0.050-0.133 0.177-0.083 0.272l0.221 0.41c0.044 0.082 0.027 0.182-0.042 0.247l-0.208 0.194c-0.063 0.065-0.17 0.075-0.249 0.025l-0.394-0.248c-0.092-0.057-0.221-0.028-0.277 0.065l-0.454 0.723c-0.057 0.092-0.028 0.221 0.065 0.277l0.394 0.248c0.079 0.050 0.116 0.145 0.086 0.231s-0.060 0.179-0.083 0.272c-0.023 0.093-0.106 0.151-0.2 0.148l-0.463-0.015c-0.114-0.004-0.204 0.080-0.208 0.194l-0.029 0.851c-0.004 0.114 0.080 0.204 0.194 0.208l0.463 0.015c0.094 0.003 0.172 0.066 0.189 0.161s0.041 0.183 0.065 0.277c0.024 0.088-0.019 0.181-0.102 0.225l-0.41 0.221c-0.096 0.050-0.133 0.177-0.083 0.272l0.404 0.752c0.050 0.096 0.177 0.133 0.272 0.083l0.41-0.221c0.082-0.044 0.182-0.027 0.247 0.042l0.194 0.208c0.065 0.063 0.075 0.17 0.025 0.249l-0.248 0.394c-0.057 0.092-0.028 0.221 0.065 0.277l0.723 0.454c0.092 0.057 0.221 0.028 0.277-0.065l0.248-0.394c0.050-0.079 0.145-0.116 0.231-0.086s0.179 0.060 0.272 0.083c0.093 0.023 0.151 0.106 0.148 0.2l-0.015 0.463c-0.004 0.114 0.080 0.204 0.194 0.208l0.852 0.029c0.114 0.004 0.204-0.080 0.208-0.194l0.016-0.463c0.003-0.094 0.066-0.172 0.161-0.189s0.183-0.041 0.277-0.065c0.088-0.024 0.181 0.019 0.225 0.102l0.221 0.41c0.051 0.096 0.177 0.133 0.272 0.083l0.752-0.404c0.096-0.050 0.133-0.177 0.083-0.272l-0.221-0.41c-0.044-0.082-0.027-0.182 0.042-0.247l0.208-0.194c0.063-0.065 0.17-0.075 0.249-0.025l0.394 0.248c0.092 0.057 0.221 0.028 0.277-0.065l0.454-0.723c0.057-0.092 0.028-0.221-0.065-0.277l-0.394-0.248c-0.079-0.050-0.116-0.145-0.086-0.231s0.060-0.179 0.083-0.272c0.023-0.093 0.106-0.151 0.2-0.148l0.463 0.015c0.114 0.004 0.204-0.080 0.208-0.194l0.029-0.852c0.011-0.114-0.080-0.204-0.188-0.208zM4.192 19.011c-1.448-0.049-2.576-1.261-2.527-2.703 0.049-1.448 1.261-2.576 2.703-2.527s2.576 1.261 2.527 2.703-1.261 2.576-2.703 2.527z"></path>
<path fill="#ca4941" style="fill: var(--color1, #ca4941)" opacity="0.7" d="M42.727 2.967h-10.586c-0.168 0-0.309 0.134-0.309 0.309v3.958c0 0.168 0.134 0.309 0.309 0.309h0.912v1.322c0 0.181 0.221 0.268 0.349 0.141l1.462-1.462h7.862c0.168 0 0.309-0.134 0.309-0.309v-3.958c0-0.174-0.141-0.309-0.309-0.309z"></path>
<path fill="#33384c" style="fill: var(--color2, #33384c)" opacity="0.5" d="M35.316 4.724c0.296 0.568 0.076 1.269-0.492 1.566s-1.269 0.076-1.566-0.492c-0.296-0.568-0.076-1.269 0.492-1.566s1.269-0.076 1.566 0.492z"></path>
<path fill="#494e60" style="fill: var(--color4, #494e60)" d="M11.968 26.694h-7.634c-0.215 0-0.389-0.174-0.389-0.389v-9.694c0-0.215 0.174-0.389 0.389-0.389h7.634c0.215 0 0.389 0.174 0.389 0.389v9.694c0 0.215-0.174 0.389-0.389 0.389z"></path>
<path fill="#494e60" style="fill: var(--color4, #494e60)" d="M36.267 11.015v8.299h-15.168v-8.299c0-0.201 0.168-0.369 0.369-0.369h14.43c0.201 0 0.369 0.168 0.369 0.369z"></path>
<path fill="#606474" style="fill: var(--color5, #606474)" d="M36.267 19.314v2.938c0 0.201-0.161 0.369-0.369 0.369h-14.43c-0.201 0-0.369-0.168-0.369-0.369v-2.938h15.168z"></path>
<path fill="#606474" style="fill: var(--color5, #606474)" opacity="0.8" d="M26.372 9.613h-9.714c-0.262 0-0.47-0.208-0.47-0.47v-8.674c0-0.262 0.208-0.47 0.47-0.47h9.714c0.262 0 0.47 0.208 0.47 0.47v8.681c0 0.255-0.208 0.463-0.47 0.463v0z"></path>
<path fill="#d2d3d7" style="fill: var(--color6, #d2d3d7)" opacity="0.8" d="M25.962 1.234v3.911l-2.71-2.71-2.885 2.885-1.986-1.986-1.328 1.335v-3.435c0-0.188 0.148-0.335 0.335-0.335h8.238c0.188 0 0.335 0.148 0.335 0.335z"></path>
<path fill="#494e60" style="fill: var(--color4, #494e60)" opacity="0.8" d="M25.962 5.146v0.671c0 0.188-0.148 0.335-0.335 0.335h-8.252c-0.188 0-0.335-0.148-0.335-0.335v-1.147l1.342-1.335 1.986 1.986 2.885-2.885 2.71 2.71z"></path>
<path fill="#ca4941" style="fill: var(--color1, #ca4941)" opacity="0.5599999999999999" d="M20.763 2.207c0 0.262-0.208 0.47-0.47 0.47s-0.47-0.208-0.47-0.47 0.208-0.47 0.47-0.47 0.47 0.208 0.47 0.47z"></path>
<path fill="#33384c" style="fill: var(--color2, #33384c)" d="M35.113 29.592c0 0.267-0.216 0.483-0.483 0.483s-0.483-0.216-0.483-0.483c0-0.267 0.216-0.483 0.483-0.483s0.483 0.216 0.483 0.483z"></path>
<path fill="#33384c" style="fill: var(--color2, #33384c)" d="M9.218 31.51c0 0.267-0.216 0.483-0.483 0.483s-0.483-0.216-0.483-0.483c0-0.267 0.216-0.483 0.483-0.483s0.483 0.216 0.483 0.483z"></path>
<path fill="#494e60" style="fill: var(--color4, #494e60)" d="M35.636 31.034h-3.582c-0.268 0-0.483-0.215-0.483-0.483s0.215-0.483 0.483-0.483h1.033c0.268 0 0.483-0.215 0.483-0.483s-0.215-0.483-0.483-0.483h-25.52c-0.268 0-0.483 0.215-0.483 0.483s0.215 0.483 0.483 0.483h3.582c0.268 0 0.483 0.215 0.483 0.483s-0.215 0.483-0.483 0.483h-0.865c-0.268 0-0.483 0.215-0.483 0.483s0.215 0.483 0.483 0.483h25.352c0.268 0 0.483-0.215 0.483-0.483-0.007-0.268-0.221-0.483-0.483-0.483zM18.328 31.034h-3.589c-0.268 0-0.483-0.215-0.483-0.483s0.215-0.483 0.483-0.483h3.589c0.268 0 0.483 0.215 0.483 0.483-0.007 0.268-0.221 0.483-0.483 0.483zM20.018 31.034c-0.268 0-0.483-0.215-0.483-0.483s0.215-0.483 0.483-0.483 0.483 0.215 0.483 0.483-0.221 0.483-0.483 0.483zM29.927 31.034c-0.268 0-0.483-0.215-0.483-0.483s0.215-0.483 0.483-0.483 0.483 0.215 0.483 0.483c-0.007 0.268-0.221 0.483-0.483 0.483z"></path>
<path fill="#ca4941" style="fill: var(--color1, #ca4941)" opacity="0.5" d="M30.39 26.962h-0.275v-0.275h-0.134v0.275h-0.275v0.134h0.275v0.275h0.134v-0.275h0.275v-0.134zM3.039 7.836h-0.275v-0.275h-0.134v0.275h-0.275v0.134h0.275v0.275h0.134v-0.275h0.275v-0.134zM2.294 24.070h-0.275v-0.275h-0.134v0.275h-0.268v0.134h0.268v0.275h0.134v-0.275h0.275v-0.134z"></path>
<path fill="#ca4941" style="fill: var(--color1, #ca4941)" opacity="0.7" d="M22.004 24.466h-7.587c-0.114 0-0.201-0.087-0.201-0.201v-4.642h7.99v4.642c0 0.107-0.087 0.201-0.201 0.201z"></path>
<path fill="#33384c" style="fill: var(--color2, #33384c)" d="M22.205 19.616h-7.99v-0.684c0-0.114 0.087-0.201 0.201-0.201h7.587c0.114 0 0.201 0.087 0.201 0.201v0.684z"></path>
</symbol>
</defs>
</svg>
